<svg width="30" height="30" viewBox="0 0 30 30" fill="none" xmlns="http://www.w3.org/2000/svg">
  <circle cx="15" cy="9" r="5.5" stroke="black"/>
  <path d="M25 17.5H5.05287C4.76661 17.5 4.53879 17.7399 4.55353 18.0257L4.58724 18.6799C4.59511 18.8326 4.67242 18.9733 4.79709 19.0618L13.1359 24.9832C13.1866 25.0193 13.2437 25.0455 13.3041 25.0606L14.8787 25.4543C14.9584 25.4742 15.0417 25.4742 15.1213 25.4543L16.6989 25.0599C16.7583 25.045 16.8145 25.0194 16.8647 24.9842L25.2871 19.0784C25.4205 18.9848 25.5 18.8321 25.5 18.669V18C25.5 17.7239 25.2761 17.5 25 17.5Z" stroke="black"/>
  <rect x="0.5" y="0.5" width="29" height="29" rx="14.5" stroke="black"/>
</svg>
