<svg width="23" height="24" viewBox="0 0 23 24" fill="none" xmlns="http://www.w3.org/2000/svg">
  <path d="M21.5367 23.8862C22.0262 24.1421 22.6304 23.9527 22.8862 23.4633C23.1421 22.9738 22.9527 22.3696 22.4633 22.1138L21.5367 23.8862ZM22.4307 1.90248C22.9292 1.6646 23.1404 1.0677 22.9025 0.56927C22.6646 0.0708439 22.0677 -0.140366 21.5693 0.097519L22.4307 1.90248ZM1.2366 11.5225L2.23644 11.5407L1.2366 11.5225ZM22.4633 22.1138L4.00962 12.4676L3.08311 14.24L21.5367 23.8862L22.4633 22.1138ZM4.04215 10.6789L22.4307 1.90248L21.5693 0.097519L3.18069 8.87389L4.04215 10.6789ZM4.00962 12.4676C3.2058 12.0474 2.70572 11.783 2.39403 11.557C2.07632 11.3266 2.24012 11.3383 2.23644 11.5407L0.236768 11.5043C0.221851 12.3247 0.76686 12.8476 1.22001 13.1762C1.67917 13.5091 2.3396 13.8514 3.08311 14.24L4.00962 12.4676ZM3.18069 8.87389C2.42354 9.23526 1.7511 9.55328 1.28014 9.86929C0.815345 10.1812 0.251686 10.6839 0.236768 11.5043L2.23644 11.5407C2.23276 11.743 2.06865 11.7487 2.39452 11.5301C2.71422 11.3155 3.22358 11.0695 4.04215 10.6789L3.18069 8.87389Z" fill="#AB850E" fill-opacity="0.8"/>
</svg>
