<svg width="23" height="24" viewBox="0 0 23 24" fill="none" xmlns="http://www.w3.org/2000/svg">
  <path d="M1.46325 0.113775C0.973805 -0.142074 0.369623 0.047297 0.113775 0.536746C-0.142074 1.02619 0.047297 1.63038 0.536746 1.88623L1.46325 0.113775ZM0.56927 22.0975C0.0708439 22.3354 -0.140366 22.9323 0.097519 23.4307C0.335404 23.9292 0.932303 24.1404 1.43073 23.9025L0.56927 22.0975ZM21.1943 13.3618L21.625 14.2643L21.1943 13.3618ZM0.536746 1.88623L20.7636 12.4593L21.6901 10.6869L1.46325 0.113775L0.536746 1.88623ZM20.7636 12.4593L0.56927 22.0975L1.43073 23.9025L21.625 14.2643L20.7636 12.4593ZM20.7636 12.4593L20.7636 12.4593L21.625 14.2643C23.1127 13.5543 23.1509 11.4505 21.6901 10.6869L20.7636 12.4593Z" fill="#AB850E" fill-opacity="0.8"/>
</svg>
